<svg xmlns="http://www.w3.org/2000/svg" xmlns:xlink="http://www.w3.org/1999/xlink" version="1.1" x="0px" y="0px" viewBox="0 0 100 125" enable-background="new 0 0 100 100" xml:space="preserve"><g><circle fill="#000000" cx="73.677" cy="50.53" r="1.511"/><circle fill="#000000" cx="64.985" cy="50.53" r="1.511"/><path fill="#000000" d="M24.017,44.594c-4.897,19.51-0.967,45.637-0.71,47.279c0.234,1.417,1.646,2.352,3.821,2.352   c2.147,0,3.719-0.959,3.817-2.299c0-0.003,0.001-0.006,0.002-0.01c0.006-0.051,0.185-1.527,0.451-3.75   c0.32,2.302,0.623,3.414,0.75,3.813c0.136,1.312,1.695,2.245,3.813,2.245c2.218,0,3.827-1.021,3.827-2.431   c0-0.007-0.001-0.013-0.002-0.02c0-0.007,0.001-0.013,0.001-0.02c-0.007-0.161-0.571-15.413,2.247-25.106   c0.324,0.36,0.511,0.768,0.511,1.195c0,0.019,0.004,0.035,0.005,0.053s-0.002,0.035,0,0.053L45.073,91.9   c0,0.005,0.002,0.01,0.003,0.016c0.09,1.344,1.665,2.309,3.818,2.309c2.155,0,3.731-0.967,3.818-2.314   c0.001-0.006,0.003-0.013,0.004-0.019l1.81-18.68c0.219-0.123,0.796-0.323,1.69-0.323c0.896,0,1.474,0.2,1.691,0.323l1.81,18.68   c0,0.006,0.003,0.013,0.003,0.019c0.087,1.348,1.664,2.314,3.819,2.314c2.156,0,3.733-0.969,3.818-2.317   c0.001-0.007,0.003-0.013,0.004-0.02l2.452-26.44c8.134-0.223,14.673-6.015,14.673-13.107c0-1.517-0.303-2.973-0.852-4.327V32.87   c0-0.399-0.235-0.76-0.601-0.922c-0.365-0.161-0.79-0.092-1.086,0.176l-8.392,7.621c-1.344-0.338-2.759-0.523-4.226-0.523   s-2.884,0.185-4.227,0.523l-8.392-7.621c-0.296-0.268-0.722-0.337-1.087-0.176c-0.364,0.162-0.6,0.523-0.6,0.922v3.102   c-7.193-3.898-13.57-3.369-17.763-2.164c-2.97,0.854-5.239,2.131-6.585,3.021c-2.07-2.275-3.246-5.288-3.246-8.389   c0-6.669,5.237-12.096,11.675-12.096c3.973,0,6.652,1.332,9.249,4.597c0.729,1.035,1.924,1.581,3.189,1.581   c0.88,0,1.794-0.265,2.606-0.813c1.971-1.331,2.61-3.843,1.462-5.644C55.61,16.06,49.996,5.273,37.246,5.273   c-11.774,0-21.353,9.882-21.353,22.029C15.893,34.02,18.918,40.433,24.017,44.594z M62.898,40.465   c-2.34,0.954-4.354,2.411-5.855,4.209v-9.528L62.898,40.465z M81.618,44.675c-1.503-1.799-3.515-3.256-5.855-4.209l5.855-5.318   V44.675z M69.331,63.441c-4.054,0-7.683-1.561-10.095-4.006c0.162,0.111,0.355,0.177,0.562,0.177c0.05,0,0.099-0.004,0.15-0.011   l5.11-0.768c0.552-0.082,0.93-0.596,0.848-1.146s-0.596-0.932-1.146-0.848l-5.111,0.767c-0.551,0.083-0.93,0.597-0.847,1.146   c0.019,0.129,0.063,0.247,0.123,0.353c-1.712-1.875-2.733-4.221-2.733-6.766c0-6.121,5.895-11.102,13.14-11.102   c7.244,0,13.138,4.98,13.138,11.102c0,2.545-1.021,4.891-2.732,6.766c0.061-0.105,0.104-0.224,0.123-0.353   c0.083-0.55-0.297-1.063-0.848-1.146l-5.11-0.767c-0.55-0.084-1.064,0.297-1.147,0.848c-0.082,0.551,0.298,1.064,0.848,1.146   l5.111,0.768c0.051,0.007,0.101,0.011,0.151,0.011c0.205,0,0.398-0.065,0.561-0.177C77.014,61.881,73.384,63.441,69.331,63.441z    M32.484,78.916c0.498-4.33,0.665-7.674,1.181-10.984c0.003-0.014,0.787-2.743,4.441-2.703c0.773,0.009,1.506,0.124,2.147,0.339   c-2.985,9.657-2.542,24.572-2.487,26.152c-0.145,0.154-0.746,0.487-1.807,0.487c-1.069,0-1.129-0.148-1.812-0.492   C33.467,91.372,32.293,81.701,32.484,78.916z M26.13,44.465c0.107-0.406-0.05-0.818-0.362-1.057   c-4.92-3.763-7.858-9.784-7.858-16.106c0-11.035,8.675-20.012,19.336-20.012c11.464,0,16.625,9.781,16.629,9.789   c0.008,0.012,0.012,0.025,0.02,0.037c0.597,0.883,0.206,2.195-0.871,2.923c-1.078,0.728-2.44,0.601-3.038-0.283   c-0.008-0.012-3.753-5.302-10.878-5.428c-7.548-0.133-13.691,6.331-13.691,14.112c0,3.555,1.332,7.009,3.679,9.641   c-0.228,0.364-0.208,0.846,0.086,1.189c0.2,0.231,0.482,0.351,0.766,0.351c0.232,0,0.465-0.08,0.655-0.243   c0.028-0.024,2.837-2.392,7.3-3.655c5.771-1.634,11.529-0.771,17.125,2.567v9.723c-0.55,1.355-0.851,2.811-0.851,4.327   c0,6.783,5.98,12.382,13.617,13.051l-2.439,26.311c0,0.004,0,0.009,0,0.013h-0.002c-0.136,0.151-0.741,0.493-1.813,0.493   c-1.072,0-1.676-0.342-1.813-0.493c0-0.003-0.002-0.006-0.002-0.009c-0.001-0.003,0-0.005,0-0.008l-1.825-18.84   c-0.001-0.01-0.005-0.019-0.006-0.027c-0.105-1.35-1.896-1.959-3.678-1.959c-1.78,0-3.571,0.609-3.677,1.959   c-0.001,0.009-0.004,0.018-0.005,0.027l-1.825,18.84c-0.001,0.003,0,0.005,0,0.008c-0.001,0.003-0.001,0.006-0.002,0.009   c-0.136,0.151-0.741,0.493-1.813,0.493c-1.071,0-1.676-0.342-1.814-0.493c0-0.005-0.001-0.009-0.002-0.013   c0-0.004,0.001-0.009,0-0.013l-2.521-23.924c-0.057-2.56-2.869-4.554-6.452-4.554c-3.585,0-5.936,1.71-6.451,4.562   c-0.963,6.442-2.688,23.72-2.71,23.9c0,0.007,0,0.014,0,0.02c-0.001,0.008-0.003,0.015-0.004,0.021   c-0.136,0.151-0.741,0.493-1.813,0.493c-1.07,0-1.674-0.341-1.813-0.492c-0.002-0.027,0-0.055-0.004-0.082   C25.266,91.36,20.951,64.155,26.13,44.465z"/><path fill="#000000" d="M73.602,54.817l5.111-0.767c0.55-0.083,1.063,0.297,1.146,0.848s-0.297,1.064-0.848,1.146l-5.11,0.767   c-0.052,0.008-0.102,0.012-0.151,0.012c-0.49,0-0.92-0.358-0.996-0.859C72.672,55.413,73.052,54.9,73.602,54.817z"/><path fill="#000000" d="M65.906,55.964c-0.074,0.501-0.504,0.859-0.996,0.859c-0.05,0-0.1-0.004-0.15-0.012l-5.111-0.767   c-0.551-0.082-0.93-0.596-0.847-1.146c0.082-0.551,0.596-0.932,1.146-0.848l5.11,0.767C65.61,54.9,65.988,55.413,65.906,55.964z"/><path fill="#000000" d="M67.504,54.039h3.652c0.557,0,1.009,0.452,1.009,1.009c0,0.558-0.452,1.008-1.009,1.008h-0.818v2.913   c0,0.557-0.451,1.009-1.008,1.009s-1.008-0.452-1.008-1.009v-2.913h-0.818c-0.557,0-1.008-0.45-1.008-1.008   C66.496,54.491,66.947,54.039,67.504,54.039z"/></g><text x="0" y="115" fill="#000000" font-size="5px" font-weight="bold" font-family="'Helvetica Neue', Helvetica, Arial-Unicode, Arial, Sans-serif">Created by Myly</text><text x="0" y="120" fill="#000000" font-size="5px" font-weight="bold" font-family="'Helvetica Neue', Helvetica, Arial-Unicode, Arial, Sans-serif">from the Noun Project</text></svg>